<svg width="25" height="27" viewBox="0 0 25 27" fill="none" xmlns="http://www.w3.org/2000/svg">
<path d="M22.125 3.00004H16.3775C15.8 1.45337 14.2875 0.333374 12.5 0.333374C10.7125 0.333374 9.2 1.45337 8.6225 3.00004H2.875C1.3625 3.00004 0.125 4.20004 0.125 5.66671V24.3334C0.125 25.8 1.3625 27 2.875 27H22.125C23.6375 27 24.875 25.8 24.875 24.3334V5.66671C24.875 4.20004 23.6375 3.00004 22.125 3.00004ZM12.5 3.00004C13.2563 3.00004 13.875 3.60004 13.875 4.33337C13.875 5.06671 13.2563 5.66671 12.5 5.66671C11.7437 5.66671 11.125 5.06671 11.125 4.33337C11.125 3.60004 11.7437 3.00004 12.5 3.00004ZM15.25 21.6667H5.625V19H15.25V21.6667ZM19.375 16.3334H5.625V13.6667H19.375V16.3334ZM19.375 11H5.625V8.33337H19.375V11Z" fill="#F1E05E"/>
</svg>
