<svg width="1373" height="505" viewBox="0 0 1373 505" fill="none" xmlns="http://www.w3.org/2000/svg">
<path d="M366.358 292.386C336.482 292.386 313.08 274.71 307.104 249.316L324.781 241.1C329.76 259.523 345.196 272.469 366.358 272.469C385.03 272.469 401.212 262.262 401.212 242.096C401.212 223.921 388.266 215.954 367.602 207.739L355.901 203.257C330.009 192.801 314.324 178.361 314.324 155.456C314.324 128.071 336.482 110.643 365.113 110.643C394.241 110.643 411.42 128.319 418.391 147.49L401.959 155.954C394.988 140.021 383.536 130.311 365.611 130.311C348.681 130.311 335.735 139.772 335.735 155.705C335.735 168.154 343.204 177.863 364.117 186.079L376.067 190.809C404.947 202.261 423.121 215.208 423.121 242.345C423.121 274.959 395.984 292.386 366.358 292.386ZM579.447 289.896L538.866 185.83L498.285 289.896H478.866L430.069 160.436H451.231L488.824 263.755L528.907 160.436H548.824L588.907 263.755L626.501 160.436H647.662L598.866 289.896H579.447ZM668.295 289.896V160.436H689.208V289.896H668.295ZM668.295 132.552V113.133H689.208V132.552H668.295ZM724.847 146.245C724.847 114.875 746.009 108.153 761.444 108.153C769.162 108.153 776.382 109.896 781.61 113.133V129.813C776.382 127.324 770.407 126.328 765.926 126.328C753.976 126.328 746.009 132.303 746.009 148.734V160.436H781.61V177.614H746.009V289.896H724.847V177.614H709.909V160.436H724.847V146.245ZM842.585 291.39C825.406 291.39 813.705 282.926 813.705 263.506V177.614H796.278V160.436H813.705V127.324H834.618V160.436H860.261V177.614H834.618V259.523C834.618 267.49 838.602 272.469 848.311 272.469C851.299 272.469 855.282 271.971 860.012 270.228V286.909C855.531 290.394 848.56 291.39 842.585 291.39ZM884.679 289.896V113.133H945.177C976.796 113.133 992.729 132.303 992.729 154.71C992.729 171.888 983.518 186.079 966.588 191.805C988.497 197.033 1002.94 213.963 1002.94 239.357C1002.94 268.735 983.518 289.896 942.937 289.896H884.679ZM906.09 270.726H941.692C968.58 270.726 981.775 258.527 981.775 237.614C981.775 216.701 968.58 202.51 941.443 202.51H906.09V270.726ZM906.09 185.581H940.696C961.111 185.581 972.065 174.129 972.065 157.946C972.065 142.51 961.858 132.303 941.194 132.303H906.09V185.581ZM1044.26 337.199L1065.67 288.652L1011.14 160.436H1032.8L1075.87 264.004L1118.95 160.436H1140.61L1085.58 289.896L1064.92 337.199H1044.26ZM1201.44 291.39C1184.26 291.39 1172.56 282.926 1172.56 263.506V177.614H1155.13V160.436H1172.56V127.324H1193.47V160.436H1219.12V177.614H1193.47V259.523C1193.47 267.49 1197.46 272.469 1207.17 272.469C1210.16 272.469 1214.14 271.971 1218.87 270.228V286.909C1214.39 290.394 1207.42 291.39 1201.44 291.39ZM1302.57 292.386C1267.71 292.386 1236.1 268.237 1236.1 225.166C1236.1 181.598 1267.96 157.946 1300.58 157.946C1333.44 157.946 1367.8 181.598 1362.57 232.884H1256.01C1259.25 260.021 1279.91 274.461 1304.81 274.461C1320 274.461 1333.94 268.984 1343.4 258.776L1353.86 269.482C1342.15 283.921 1323.48 292.386 1302.57 292.386ZM1256.01 216.95H1344.15C1342.65 190.311 1322.49 176.12 1300.83 176.12C1279.42 176.12 1259.25 189.813 1256.01 216.95Z" fill="#F1E05E"/>
<path d="M340.327 441.485C320.546 441.485 304.688 429.714 302.073 412.059L317.767 405.193C320.055 416.473 328.229 424.483 341.308 424.483C352.751 424.483 362.56 418.598 362.56 406.664C362.56 397.019 356.511 392.605 345.068 387.864L337.875 384.921C322.998 378.872 312.535 370.045 312.535 354.514C312.535 334.897 329.21 322.145 349.482 322.145C369.426 322.145 381.033 334.079 384.63 346.504L369.917 354.024C365.993 344.215 358.963 338.82 348.991 338.82C338.692 338.82 330.845 344.705 330.845 353.86C330.845 360.726 335.422 365.794 347.029 370.535L354.549 373.641C372.042 380.834 381.687 389.335 381.687 405.356C381.687 428.897 360.762 441.485 340.327 441.485ZM432.045 441.485C410.466 441.485 391.666 427.589 391.666 401.433C391.666 374.295 412.591 353.206 438.421 353.206C460.49 353.206 482.397 368.9 474.876 404.212H408.177C409.812 418.925 420.765 426.445 434.988 426.445C444.142 426.445 452.48 423.502 459.346 417.617L466.866 426.445C458.529 435.6 446.268 441.485 432.045 441.485ZM409.321 390.806H460.163C460.327 375.93 449.374 368.573 436.949 368.573C423.054 368.573 412.754 377.892 409.321 390.806ZM485.535 439.85L494.362 354.841H512.345L510.056 376.747C514.307 363.996 523.625 353.206 539.319 353.206C541.281 353.206 543.079 353.37 544.877 354.024L542.916 371.025C541.444 370.698 539.646 370.535 537.684 370.535C521.663 370.535 510.22 381.652 507.768 398.49L503.517 439.85H485.535ZM579.633 439.85L552.659 354.841H571.132L590.26 417.944L622.301 354.841H641.265L596.472 439.85H579.633ZM680.297 441.485C658.718 441.485 639.918 427.589 639.918 401.433C639.918 374.295 660.843 353.206 686.673 353.206C708.742 353.206 730.648 368.9 723.128 404.212H656.429C658.064 418.925 669.017 426.445 683.24 426.445C692.394 426.445 700.732 423.502 707.598 417.617L715.118 426.445C706.781 435.6 694.52 441.485 680.297 441.485ZM657.573 390.806H708.415C708.579 375.93 697.626 368.573 685.201 368.573C671.306 368.573 661.006 377.892 657.573 390.806Z" fill="#F1E05E"/>
<path d="M63.4106 117.854L202.035 179.655V117.854C202.035 87.5696 177.639 68.4102 138.949 68.4102H65.0898C25.5539 68.4102 0.325195 87.5696 0.325195 117.854V170.999C0.325195 203.76 23.0418 226.631 44.0658 247.636C61.1402 264.555 135.497 359 138.949 378.663L0.325195 300.169V378.663C0.325195 408.947 24.721 428.106 63.4106 428.106C64.7808 428.106 66.1242 428.077 67.4676 428.037C68.7707 428.077 70.0872 428.106 71.4306 428.106H137.27C176.806 428.106 202.035 408.947 202.035 378.663V308.204C202.035 276.686 179.318 253.203 158.294 231.566C141.394 214.835 67.0915 137.24 63.4106 117.854Z" fill="#F1E05E"/>
<path fill-rule="evenodd" clip-rule="evenodd" d="M139.742 179.595L141.601 260.114L202.028 179.595H139.742Z" fill="#F1E05E"/>
<path fill-rule="evenodd" clip-rule="evenodd" d="M53.9238 300.318L52.3242 231.029L0.325112 300.318H53.9238Z" fill="#F1E05E"/>
</svg>
