<svg width="1918" height="1187" viewBox="0 0 1918 1187" fill="none" xmlns="http://www.w3.org/2000/svg">
<rect width="1918" height="1187" fill="#F2F2F7"/>
<rect x="767" y="433" width="384" height="131" rx="22" fill="#C7C7D3"/>
<rect x="1031" y="588" width="167" height="264" rx="22" transform="rotate(90 1031 588)" fill="#C7C7D3"/>
<rect x="1151" y="588" width="167" height="102" rx="22" transform="rotate(90 1151 588)" fill="#C7C7D3"/>
<path d="M836.739 818H834.523L843.83 800.545H846.011L849.523 818H847.307L844.545 803.307H844.409L836.739 818ZM838.682 811.182H847.614L847.307 813.057H838.375L838.682 811.182ZM856.895 818.273C855.798 818.273 854.878 817.997 854.134 817.446C853.389 816.889 852.864 816.105 852.557 815.094C852.256 814.077 852.219 812.875 852.446 811.489C852.679 810.114 853.114 808.92 853.75 807.909C854.392 806.898 855.179 806.116 856.111 805.565C857.043 805.014 858.06 804.739 859.162 804.739C860.014 804.739 860.665 804.881 861.114 805.165C861.568 805.443 861.898 805.761 862.102 806.119C862.307 806.472 862.463 806.761 862.571 806.989H862.741L863.815 800.545H865.827L862.929 818H860.986L861.327 815.989H861.088C860.901 816.227 860.639 816.528 860.304 816.892C859.969 817.25 859.526 817.571 858.974 817.855C858.429 818.134 857.736 818.273 856.895 818.273ZM857.389 816.466C858.196 816.466 858.918 816.256 859.554 815.835C860.196 815.409 860.73 814.821 861.156 814.071C861.582 813.315 861.878 812.443 862.043 811.455C862.207 810.477 862.202 809.622 862.026 808.889C861.849 808.151 861.511 807.577 861.011 807.168C860.511 806.753 859.849 806.545 859.026 806.545C858.179 806.545 857.443 806.764 856.818 807.202C856.193 807.634 855.685 808.222 855.293 808.966C854.901 809.705 854.628 810.534 854.474 811.455C854.321 812.386 854.318 813.233 854.466 813.994C854.614 814.75 854.926 815.352 855.403 815.801C855.886 816.244 856.548 816.466 857.389 816.466ZM871.801 818.273C870.705 818.273 869.784 817.997 869.04 817.446C868.295 816.889 867.77 816.105 867.463 815.094C867.162 814.077 867.125 812.875 867.352 811.489C867.585 810.114 868.02 808.92 868.656 807.909C869.298 806.898 870.085 806.116 871.017 805.565C871.949 805.014 872.966 804.739 874.068 804.739C874.92 804.739 875.571 804.881 876.02 805.165C876.474 805.443 876.804 805.761 877.009 806.119C877.213 806.472 877.369 806.761 877.477 806.989H877.648L878.722 800.545H880.733L877.835 818H875.892L876.233 815.989H875.994C875.807 816.227 875.545 816.528 875.21 816.892C874.875 817.25 874.432 817.571 873.881 817.855C873.335 818.134 872.642 818.273 871.801 818.273ZM872.295 816.466C873.102 816.466 873.824 816.256 874.46 815.835C875.102 815.409 875.636 814.821 876.062 814.071C876.489 813.315 876.784 812.443 876.949 811.455C877.114 810.477 877.108 809.622 876.932 808.889C876.756 808.151 876.418 807.577 875.918 807.168C875.418 806.753 874.756 806.545 873.932 806.545C873.085 806.545 872.349 806.764 871.724 807.202C871.099 807.634 870.591 808.222 870.199 808.966C869.807 809.705 869.534 810.534 869.381 811.455C869.227 812.386 869.224 813.233 869.372 813.994C869.52 814.75 869.832 815.352 870.31 815.801C870.793 816.244 871.455 816.466 872.295 816.466ZM889.026 822.909C888.685 822.909 888.384 822.881 888.122 822.824C887.866 822.773 887.69 822.722 887.594 822.67L888.412 820.898C888.878 821.023 889.293 821.06 889.656 821.009C890.026 820.963 890.375 820.784 890.705 820.472C891.04 820.165 891.389 819.682 891.753 819.023L892.315 818L889.69 804.909H891.787L893.662 815.375H893.798L899.151 804.909H901.418L893.389 819.892C893.014 820.591 892.602 821.162 892.153 821.605C891.705 822.048 891.219 822.375 890.696 822.585C890.173 822.801 889.616 822.909 889.026 822.909ZM906.825 818.273C905.621 818.273 904.612 817.986 903.8 817.412C902.987 816.838 902.413 816.034 902.078 815C901.749 813.966 901.695 812.761 901.916 811.386C902.132 810.045 902.561 808.878 903.203 807.884C903.851 806.884 904.655 806.111 905.615 805.565C906.581 805.014 907.643 804.739 908.803 804.739C910.007 804.739 911.013 805.028 911.82 805.608C912.632 806.182 913.206 806.989 913.541 808.028C913.876 809.062 913.933 810.273 913.712 811.659C913.496 812.989 913.061 814.151 912.408 815.145C911.76 816.134 910.956 816.903 909.996 817.455C909.041 818 907.984 818.273 906.825 818.273ZM906.859 816.466C907.78 816.466 908.578 816.23 909.254 815.759C909.936 815.287 910.487 814.665 910.908 813.892C911.334 813.119 911.621 812.284 911.768 811.386C911.905 810.534 911.899 809.741 911.751 809.009C911.604 808.27 911.288 807.676 910.805 807.227C910.322 806.773 909.643 806.545 908.768 806.545C907.848 806.545 907.044 806.784 906.357 807.261C905.675 807.739 905.124 808.366 904.703 809.145C904.283 809.923 904.001 810.761 903.859 811.659C903.723 812.511 903.726 813.304 903.868 814.037C904.016 814.764 904.331 815.352 904.814 815.801C905.303 816.244 905.984 816.466 906.859 816.466ZM924.879 812.648L926.174 804.909H928.185L926.004 818H923.992L924.367 815.784H924.231C923.822 816.449 923.251 817.014 922.518 817.48C921.785 817.94 920.924 818.17 919.935 818.17C919.117 818.17 918.418 817.991 917.839 817.634C917.265 817.27 916.856 816.724 916.612 815.997C916.373 815.264 916.344 814.341 916.526 813.227L917.924 804.909H919.935L918.572 813.091C918.418 814.045 918.563 814.807 919.006 815.375C919.45 815.943 920.089 816.227 920.924 816.227C921.424 816.227 921.952 816.099 922.509 815.844C923.072 815.588 923.572 815.196 924.009 814.668C924.452 814.139 924.742 813.466 924.879 812.648ZM929.688 818L931.869 804.909H933.812L933.472 806.886H933.608C933.949 806.239 934.469 805.713 935.168 805.31C935.866 804.906 936.608 804.705 937.392 804.705C937.545 804.705 937.73 804.707 937.946 804.713C938.162 804.713 938.33 804.722 938.449 804.739L938.108 806.784C938.04 806.767 937.886 806.741 937.648 806.707C937.409 806.668 937.153 806.648 936.881 806.648C936.244 806.648 935.656 806.781 935.116 807.048C934.577 807.31 934.125 807.673 933.761 808.139C933.398 808.599 933.165 809.125 933.062 809.716L931.699 818H929.688ZM945.414 818L947.596 804.909H949.539L949.198 806.955H949.369C949.761 806.256 950.292 805.713 950.962 805.327C951.638 804.935 952.403 804.739 953.255 804.739C954.107 804.739 954.792 804.935 955.309 805.327C955.826 805.713 956.187 806.256 956.391 806.955H956.528C956.971 806.273 957.562 805.733 958.3 805.335C959.045 804.938 959.886 804.739 960.823 804.739C961.982 804.739 962.874 805.105 963.499 805.838C964.13 806.571 964.317 807.705 964.062 809.239L962.596 818H960.585L962.05 809.239C962.204 808.267 962.05 807.577 961.59 807.168C961.136 806.753 960.55 806.545 959.835 806.545C958.914 806.545 958.156 806.821 957.559 807.372C956.962 807.923 956.596 808.625 956.46 809.477L955.028 818H952.982L954.482 809.034C954.602 808.284 954.46 807.682 954.056 807.227C953.653 806.773 953.067 806.545 952.3 806.545C951.778 806.545 951.266 806.687 950.766 806.972C950.266 807.25 949.837 807.636 949.479 808.131C949.121 808.619 948.891 809.182 948.789 809.818L947.425 818H945.414ZM971.728 818.273C970.472 818.273 969.435 817.994 968.617 817.438C967.799 816.875 967.228 816.091 966.904 815.085C966.58 814.074 966.529 812.898 966.751 811.557C966.972 810.216 967.413 809.034 968.072 808.011C968.731 806.983 969.552 806.182 970.535 805.608C971.518 805.028 972.597 804.739 973.773 804.739C974.455 804.739 975.112 804.852 975.742 805.08C976.373 805.307 976.918 805.676 977.379 806.188C977.839 806.693 978.16 807.364 978.342 808.199C978.523 809.034 978.512 810.062 978.308 811.284L978.171 812.136H968.08L968.353 810.398H976.398C976.529 809.659 976.495 809 976.296 808.42C976.103 807.841 975.765 807.384 975.282 807.048C974.805 806.713 974.2 806.545 973.467 806.545C972.711 806.545 972.006 806.75 971.353 807.159C970.7 807.562 970.154 808.074 969.717 808.693C969.279 809.307 969.006 809.932 968.898 810.568L968.66 812.068C968.489 813.153 968.515 814.017 968.737 814.659C968.964 815.301 969.359 815.764 969.921 816.048C970.484 816.327 971.188 816.466 972.035 816.466C972.575 816.466 973.072 816.392 973.526 816.244C973.981 816.091 974.387 815.864 974.745 815.562C975.103 815.256 975.404 814.875 975.648 814.42L977.489 814.966C977.177 815.625 976.737 816.205 976.168 816.705C975.606 817.199 974.947 817.585 974.191 817.864C973.441 818.136 972.62 818.273 971.728 818.273ZM983.596 810.125L982.3 818H980.289L982.471 804.909H984.414L984.073 806.955H984.244C984.653 806.29 985.207 805.756 985.906 805.352C986.604 804.943 987.448 804.739 988.437 804.739C989.312 804.739 990.05 804.92 990.653 805.284C991.261 805.642 991.69 806.188 991.94 806.92C992.195 807.648 992.232 808.568 992.05 809.682L990.653 818H988.641L990.005 809.818C990.175 808.795 990.042 807.994 989.604 807.415C989.173 806.835 988.488 806.545 987.55 806.545C986.903 806.545 986.303 806.685 985.752 806.963C985.207 807.241 984.744 807.648 984.363 808.182C983.988 808.716 983.732 809.364 983.596 810.125ZM1003.46 812.648L1004.76 804.909H1006.77L1004.59 818H1002.58L1002.95 815.784H1002.82C1002.41 816.449 1001.84 817.014 1001.1 817.48C1000.37 817.94 999.51 818.17 998.521 818.17C997.703 818.17 997.004 817.991 996.425 817.634C995.851 817.27 995.442 816.724 995.197 815.997C994.959 815.264 994.93 814.341 995.112 813.227L996.51 804.909H998.521L997.158 813.091C997.004 814.045 997.149 814.807 997.592 815.375C998.036 815.943 998.675 816.227 999.51 816.227C1000.01 816.227 1000.54 816.099 1001.1 815.844C1001.66 815.588 1002.16 815.196 1002.6 814.668C1003.04 814.139 1003.33 813.466 1003.46 812.648ZM1015.02 818L1017.21 804.909H1019.22L1017.03 818H1015.02ZM1018.82 802.693C1018.43 802.693 1018.09 802.56 1017.81 802.293C1017.53 802.026 1017.39 801.705 1017.39 801.33C1017.39 800.955 1017.53 800.634 1017.81 800.366C1018.09 800.099 1018.43 799.966 1018.82 799.966C1019.22 799.966 1019.55 800.099 1019.83 800.366C1020.11 800.634 1020.26 800.955 1020.26 801.33C1020.26 801.705 1020.11 802.026 1019.83 802.293C1019.55 802.56 1019.22 802.693 1018.82 802.693ZM1020.72 818L1022.9 804.909H1024.84L1024.5 806.955H1024.67C1025.07 806.256 1025.6 805.713 1026.27 805.327C1026.94 804.935 1027.71 804.739 1028.56 804.739C1029.41 804.739 1030.1 804.935 1030.61 805.327C1031.13 805.713 1031.49 806.256 1031.7 806.955H1031.83C1032.28 806.273 1032.87 805.733 1033.61 805.335C1034.35 804.938 1035.19 804.739 1036.13 804.739C1037.29 804.739 1038.18 805.105 1038.8 805.838C1039.43 806.571 1039.62 807.705 1039.37 809.239L1037.9 818H1035.89L1037.36 809.239C1037.51 808.267 1037.36 807.577 1036.89 807.168C1036.44 806.753 1035.86 806.545 1035.14 806.545C1034.22 806.545 1033.46 806.821 1032.86 807.372C1032.27 807.923 1031.9 808.625 1031.76 809.477L1030.33 818H1028.29L1029.79 809.034C1029.91 808.284 1029.76 807.682 1029.36 807.227C1028.96 806.773 1028.37 806.545 1027.61 806.545C1027.08 806.545 1026.57 806.687 1026.07 806.972C1025.57 807.25 1025.14 807.636 1024.78 808.131C1024.43 808.619 1024.2 809.182 1024.09 809.818L1022.73 818H1020.72ZM1045.4 818.307C1044.57 818.307 1043.84 818.151 1043.21 817.838C1042.59 817.52 1042.13 817.062 1041.83 816.466C1041.52 815.864 1041.44 815.136 1041.58 814.284C1041.71 813.534 1041.96 812.926 1042.34 812.46C1042.71 811.989 1043.17 811.619 1043.7 811.352C1044.24 811.08 1044.82 810.878 1045.44 810.747C1046.06 810.611 1046.69 810.506 1047.31 810.432C1048.11 810.33 1048.77 810.25 1049.27 810.193C1049.78 810.136 1050.16 810.043 1050.42 809.912C1050.67 809.781 1050.83 809.557 1050.88 809.239V809.17C1051.02 808.335 1050.91 807.685 1050.55 807.219C1050.19 806.747 1049.56 806.511 1048.63 806.511C1047.68 806.511 1046.88 806.722 1046.24 807.142C1045.6 807.562 1045.12 808.011 1044.82 808.489L1043.04 807.807C1043.51 807.011 1044.07 806.392 1044.71 805.949C1045.36 805.5 1046.04 805.187 1046.75 805.011C1047.46 804.83 1048.15 804.739 1048.81 804.739C1049.23 804.739 1049.7 804.79 1050.23 804.892C1050.76 804.989 1051.25 805.19 1051.71 805.497C1052.18 805.804 1052.53 806.267 1052.76 806.886C1053 807.506 1053.03 808.335 1052.86 809.375L1051.43 818H1049.42L1049.73 816.227H1049.62C1049.44 816.511 1049.16 816.815 1048.79 817.139C1048.42 817.463 1047.95 817.739 1047.38 817.966C1046.82 818.193 1046.16 818.307 1045.4 818.307ZM1045.98 816.5C1046.77 816.5 1047.47 816.344 1048.06 816.031C1048.67 815.719 1049.15 815.315 1049.51 814.821C1049.88 814.327 1050.11 813.807 1050.2 813.261L1050.51 811.42C1050.41 811.523 1050.21 811.616 1049.9 811.702C1049.6 811.781 1049.26 811.852 1048.88 811.915C1048.51 811.972 1048.14 812.023 1047.78 812.068C1047.43 812.108 1047.15 812.142 1046.93 812.17C1046.4 812.239 1045.89 812.349 1045.4 812.503C1044.93 812.651 1044.52 812.875 1044.19 813.176C1043.87 813.472 1043.67 813.875 1043.59 814.386C1043.47 815.085 1043.64 815.614 1044.09 815.972C1044.55 816.324 1045.17 816.5 1045.98 816.5ZM1059.57 823.182C1058.59 823.182 1057.77 823.057 1057.11 822.807C1056.45 822.562 1055.93 822.239 1055.53 821.835C1055.13 821.438 1054.83 821.011 1054.62 820.557L1056.43 819.432C1056.57 819.67 1056.74 819.943 1056.96 820.25C1057.18 820.562 1057.5 820.832 1057.94 821.06C1058.38 821.293 1059 821.409 1059.81 821.409C1060.86 821.409 1061.78 821.153 1062.57 820.642C1063.36 820.131 1063.85 819.33 1064.03 818.239L1064.44 815.58H1064.27C1064.09 815.818 1063.84 816.114 1063.51 816.466C1063.19 816.812 1062.75 817.122 1062.21 817.395C1061.66 817.662 1060.97 817.795 1060.11 817.795C1059.05 817.795 1058.14 817.545 1057.39 817.045C1056.63 816.545 1056.09 815.818 1055.76 814.864C1055.43 813.909 1055.39 812.75 1055.61 811.386C1055.83 810.045 1056.26 808.878 1056.89 807.884C1057.53 806.884 1058.31 806.111 1059.24 805.565C1060.18 805.014 1061.19 804.739 1062.29 804.739C1063.15 804.739 1063.8 804.881 1064.25 805.165C1064.72 805.443 1065.05 805.761 1065.26 806.119C1065.47 806.472 1065.63 806.761 1065.74 806.989H1065.94L1066.28 804.909H1068.23L1066.01 818.375C1065.82 819.5 1065.42 820.415 1064.79 821.119C1064.17 821.83 1063.4 822.349 1062.49 822.679C1061.58 823.014 1060.61 823.182 1059.57 823.182ZM1060.62 815.989C1061.43 815.989 1062.14 815.804 1062.76 815.435C1063.39 815.065 1063.92 814.534 1064.33 813.841C1064.75 813.148 1065.03 812.318 1065.19 811.352C1065.35 810.409 1065.34 809.577 1065.16 808.855C1064.98 808.134 1064.63 807.568 1064.13 807.159C1063.63 806.75 1062.97 806.545 1062.16 806.545C1061.3 806.545 1060.56 806.761 1059.93 807.193C1059.31 807.625 1058.81 808.205 1058.43 808.932C1058.04 809.659 1057.77 810.466 1057.62 811.352C1057.48 812.261 1057.48 813.065 1057.64 813.764C1057.8 814.457 1058.12 815.003 1058.61 815.401C1059.11 815.793 1059.78 815.989 1060.62 815.989ZM1075.18 818.273C1073.93 818.273 1072.89 817.994 1072.07 817.438C1071.25 816.875 1070.68 816.091 1070.36 815.085C1070.03 814.074 1069.98 812.898 1070.2 811.557C1070.43 810.216 1070.87 809.034 1071.52 808.011C1072.18 806.983 1073 806.182 1073.99 805.608C1074.97 805.028 1076.05 804.739 1077.23 804.739C1077.91 804.739 1078.56 804.852 1079.2 805.08C1079.83 805.307 1080.37 805.676 1080.83 806.188C1081.29 806.693 1081.61 807.364 1081.79 808.199C1081.98 809.034 1081.97 810.062 1081.76 811.284L1081.62 812.136H1071.53L1071.81 810.398H1079.85C1079.98 809.659 1079.95 809 1079.75 808.42C1079.56 807.841 1079.22 807.384 1078.74 807.048C1078.26 806.713 1077.65 806.545 1076.92 806.545C1076.16 806.545 1075.46 806.75 1074.81 807.159C1074.15 807.562 1073.61 808.074 1073.17 808.693C1072.73 809.307 1072.46 809.932 1072.35 810.568L1072.11 812.068C1071.94 813.153 1071.97 814.017 1072.19 814.659C1072.42 815.301 1072.81 815.764 1073.37 816.048C1073.94 816.327 1074.64 816.466 1075.49 816.466C1076.03 816.466 1076.52 816.392 1076.98 816.244C1077.43 816.091 1077.84 815.864 1078.2 815.562C1078.56 815.256 1078.86 814.875 1079.1 814.42L1080.94 814.966C1080.63 815.625 1080.19 816.205 1079.62 816.705C1079.06 817.199 1078.4 817.585 1077.64 817.864C1076.89 818.136 1076.07 818.273 1075.18 818.273Z" fill="#C7C7D3"/>
</svg>
