<svg width="39" height="39" viewBox="0 0 39 39" fill="none" xmlns="http://www.w3.org/2000/svg">
<g id="Group 603">
<path id="Vector" d="M35.1264 26.9265C34.9714 26.7524 34.8192 26.5783 34.6699 26.4103C32.6159 24.0938 31.3733 22.6957 31.3733 16.138C31.3733 12.7429 30.5022 9.95719 28.7853 7.8679C27.5194 6.32444 25.8081 5.15357 23.5525 4.28826C23.5235 4.2732 23.4975 4.25345 23.4759 4.22993C22.6646 1.69667 20.4445 0 17.9406 0C15.4366 0 13.2175 1.69667 12.4062 4.22732C12.3845 4.24998 12.359 4.2691 12.3305 4.28391C7.06687 6.30442 4.5088 10.1809 4.5088 16.1354C4.5088 22.6957 3.26803 24.0938 1.21223 26.4077C1.06286 26.5757 0.91068 26.7463 0.755701 26.9239C0.355372 27.3741 0.10173 27.9218 0.0247939 28.5022C-0.0521424 29.0826 0.0508472 29.6714 0.321574 30.1989C0.897609 31.3306 2.1253 32.0331 3.52664 32.0331H32.3648C33.7596 32.0331 34.9789 31.3315 35.5568 30.205C35.8287 29.6773 35.9326 29.0881 35.8564 28.507C35.7801 27.9259 35.5268 27.3775 35.1264 26.9265ZM17.9406 39C19.2897 38.999 20.6133 38.6575 21.7711 38.0118C22.9289 37.3661 23.8777 36.4403 24.5169 35.3324C24.547 35.2793 24.5619 35.2199 24.5601 35.1599C24.5583 35.0998 24.5398 35.0412 24.5066 34.9898C24.4733 34.9384 24.4263 34.8959 24.3702 34.8663C24.3141 34.8368 24.2508 34.8214 24.1864 34.8214H11.6966C11.6321 34.8212 11.5687 34.8366 11.5125 34.866C11.4562 34.8955 11.4091 34.938 11.3758 34.9894C11.3424 35.0409 11.3239 35.0995 11.322 35.1596C11.3202 35.2197 11.335 35.2793 11.3652 35.3324C12.0043 36.4401 12.9529 37.3659 14.1106 38.0116C15.2682 38.6573 16.5916 38.9988 17.9406 39Z" fill="#1D3D30"/>
<path id="Ellipse 44" d="M38.6254 9.38902C38.6254 13.5429 34.9796 16.9585 30.4203 16.9585C25.861 16.9585 22.2151 13.5429 22.2151 9.38902C22.2151 5.2352 25.861 1.81958 30.4203 1.81958C34.9796 1.81958 38.6254 5.2352 38.6254 9.38902Z" fill="#FB6D3A" stroke="white" stroke-width="0.75"/>
</g>
</svg>
