<svg width="18" height="3" viewBox="0 0 18 3" fill="none" xmlns="http://www.w3.org/2000/svg">
<g id="&#240;&#159;&#166;&#134; icon &#34;more horiz&#34;">
<path id="Vector" d="M15.9108 1C16.2401 1 16.5072 1.2239 16.5072 1.5C16.5072 1.7761 16.2401 2 15.9108 2C15.5814 2 15.3143 1.7761 15.3143 1.5C15.3143 1.2239 15.5814 1 15.9108 1Z" fill="#707070" stroke="#707070" stroke-width="1.79459" stroke-linecap="round" stroke-linejoin="round"/>
<path id="Vector_2" d="M8.75416 1C9.08351 1 9.3506 1.2239 9.3506 1.5C9.3506 1.7761 9.08351 2 8.75416 2C8.4248 2 8.15771 1.7761 8.15771 1.5C8.15771 1.2239 8.4248 1 8.75416 1Z" fill="#707070" stroke="#707070" stroke-width="1.79459" stroke-linecap="round" stroke-linejoin="round"/>
<path id="Vector_3" d="M1.59644 1C1.92585 1 2.19289 1.2239 2.19289 1.5C2.19289 1.7761 1.92585 2 1.59644 2C1.26704 2 1 1.7761 1 1.5C1 1.2239 1.26704 1 1.59644 1Z" fill="#707070" stroke="#707070" stroke-width="1.79459" stroke-linecap="round" stroke-linejoin="round"/>
</g>
</svg>
