<svg width="30" height="32" viewBox="0 0 30 32" fill="none" xmlns="http://www.w3.org/2000/svg">
<g clip-path="url(#clip0_116_137)">
<path d="M17.5013 12C17.5013 13.4707 16.3848 14.6667 15.0118 14.6667C13.6388 14.6667 12.5222 13.4707 12.5222 12V8H10.0326V12C10.0326 14.9407 12.2664 17.3333 15.0118 17.3333C17.7571 17.3333 19.9909 14.9407 19.9909 12V8H17.5013V12Z" fill="#F1E05E"/>
<path d="M2.56384 26.6666C2.56384 28.1333 3.68416 29.3333 5.05343 29.3333H24.9701C26.3394 29.3333 27.4597 28.1333 27.4597 26.6666V2.66663H2.56384V26.6666ZM5.05343 5.33329H24.9701V26.6666H5.05343V5.33329Z" fill="#F1E05E"/>
</g>
<defs>
<clipPath id="clip0_116_137">
<rect width="29.875" height="32" fill="white" transform="translate(0.0742188)"/>
</clipPath>
</defs>
</svg>
