<svg width="35" height="35" viewBox="0 0 35 35" fill="none" xmlns="http://www.w3.org/2000/svg">
<path d="M15.4379 4C13.4544 3.99984 11.5053 4.51834 9.78411 5.50406C8.06288 6.48977 6.62932 7.90843 5.62567 9.61927C4.62202 11.3301 4.08318 13.2736 4.06261 15.257C4.04204 17.2404 4.54045 19.1947 5.5084 20.926L4.1154 24.5695C3.9996 24.8724 3.97023 25.2015 4.03056 25.5201C4.09088 25.8387 4.23854 26.1342 4.45706 26.3738C4.67557 26.6134 4.95635 26.7875 5.26807 26.8768C5.57978 26.9661 5.91018 26.967 6.2224 26.8795L10.5747 25.6597C12.1163 26.3882 13.802 26.7607 15.5071 26.7498C17.2121 26.7388 18.8929 26.3447 20.4251 25.5966C21.9573 24.8484 23.3017 23.7654 24.3589 22.4276C25.416 21.0898 26.1589 19.5315 26.5326 17.8678C26.9063 16.2042 26.9012 14.4778 26.5176 12.8164C26.1341 11.155 25.382 9.60111 24.3169 8.2696C23.2518 6.93809 21.901 5.86305 20.3644 5.12401C18.8278 4.38497 17.1447 4.00083 15.4397 4H15.4379ZM5.8129 15.375C5.81368 13.2775 6.49961 11.2377 7.76632 9.56587C9.03304 7.89406 10.8112 6.6818 12.8303 6.11354C14.8493 5.54528 16.9987 5.65212 18.9515 6.4178C20.9042 7.18349 22.5534 8.5661 23.6481 10.3553C24.7428 12.1445 25.223 14.2423 25.0158 16.3295C24.8086 18.4167 23.9252 20.3791 22.5001 21.9181C21.075 23.4572 19.1861 24.4885 17.121 24.8553C15.0558 25.2221 12.9273 24.9042 11.0594 23.95L10.7549 23.7925L5.7499 25.1943L7.44565 20.7563L7.22165 20.3888C6.2979 18.8797 5.81029 17.1443 5.8129 15.375ZM20.6231 32C18.9857 32.0018 17.3673 31.6493 15.879 30.9666C14.3907 30.2839 13.0677 29.2872 12.0009 28.045C13.0059 28.3173 14.04 28.4683 15.0809 28.4947C16.7015 29.6394 18.6374 30.2527 20.6214 30.25C22.1999 30.25 23.6874 29.8702 24.9999 29.2L25.3044 29.0425L30.3094 30.4443L28.6136 26.0063L28.8377 25.6388C29.7302 24.1792 30.2464 22.4643 30.2464 20.625C30.2491 18.6817 29.6607 16.7836 28.5594 15.1825C28.545 14.1414 28.407 13.1057 28.1481 12.0972C29.359 13.1634 30.3285 14.4755 30.9921 15.946C31.6557 17.4166 31.9981 19.0117 31.9964 20.625C31.9964 22.6392 31.4714 24.5327 30.5526 26.176L31.9439 29.8195C32.0597 30.1224 32.0891 30.4515 32.0287 30.7701C31.9684 31.0887 31.8208 31.3842 31.6022 31.6238C31.3837 31.8634 31.1029 32.0375 30.7912 32.1268C30.4795 32.2161 30.1491 32.217 29.8369 32.1295L25.4846 30.9098C24.0094 31.6098 22.3591 32 20.6196 32H20.6231Z" fill="#F1E05E"/>
</svg>
